<svg width="179" height="80" viewBox="0 0 179 80" fill="none" xmlns="http://www.w3.org/2000/svg">
<g clip-path="url(#clip0_1589_311)">
<path d="M74.1027 58.4481H74.9902C75.5356 58.4481 76.1114 58.4447 76.7178 58.4346L76.7381 58.4651L76.5281 59.5931L76.3824 59.6202L76.1555 58.7767H74.4685V60.782H74.8005C75.0546 60.782 75.3357 60.782 75.6474 60.7753C75.7117 60.7753 75.7524 60.7414 75.7727 60.6804L75.9014 60.1892L76.0979 60.1825C76.0911 60.5246 76.0877 60.7753 76.0877 60.9379C76.0877 61.1004 76.0911 61.3443 76.0979 61.6831L75.9014 61.6966L75.7693 61.1953C75.749 61.1309 75.7117 61.1004 75.6575 61.0971C75.3425 61.0937 75.0546 61.0903 74.8005 61.0903H74.4719V62.4181C74.4719 62.6891 74.4719 62.9534 74.4787 63.2176H76.23L76.6737 62.2894L76.8397 62.2589L76.7584 63.5292L76.7313 63.5563C76.1013 63.5495 75.5186 63.5461 74.9868 63.5461H74.1196C73.8249 63.5461 73.5235 63.5495 73.2152 63.5563L73.2017 63.4005L73.6522 63.265C73.7132 63.2481 73.747 63.2108 73.7504 63.1532C73.7504 63.055 73.7538 62.9466 73.7572 62.828C73.7572 62.7061 73.7572 62.574 73.7572 62.4283V59.4677C73.7572 59.3424 73.7572 59.2306 73.7572 59.1324C73.7572 59.0341 73.7572 58.9427 73.7504 58.8614C73.7504 58.797 73.7199 58.7564 73.6623 58.736L73.2084 58.5938L73.2017 58.438C73.5167 58.4481 73.8182 58.4515 74.1061 58.4515L74.1027 58.4481Z" fill="#17191B"/>
<path d="M80.0678 58.7672C79.8137 58.6825 79.5766 58.6385 79.3632 58.6385C79.0414 58.6385 78.7873 58.7164 78.5943 58.8722C78.4046 59.028 78.3097 59.2448 78.3097 59.5226C78.3097 59.6818 78.3436 59.8206 78.4113 59.9392C78.4791 60.0578 78.5671 60.1628 78.6823 60.2542C78.7975 60.3457 78.9228 60.4236 79.0685 60.4947C79.2108 60.5659 79.3598 60.6336 79.5122 60.7014C79.6816 60.7759 79.8442 60.8504 80 60.9317C80.1558 61.013 80.3015 61.1079 80.4302 61.2196C80.5589 61.3314 80.6606 61.4601 80.7385 61.6126C80.8164 61.765 80.8536 61.9445 80.8536 62.1478C80.8536 62.6322 80.6639 63.0014 80.2879 63.2589C79.9086 63.5129 79.4208 63.6416 78.8178 63.6416C78.4317 63.6416 78.0015 63.5773 77.534 63.4452L77.5137 63.4147L77.6932 62.1749L77.8592 62.1478L78.1132 63.1843C78.3707 63.286 78.6349 63.3368 78.9059 63.3368C79.2683 63.3368 79.5495 63.2555 79.7527 63.0963C79.956 62.9371 80.0576 62.7067 80.0576 62.4086C80.0576 62.2528 80.0237 62.1173 79.9594 61.9987C79.895 61.8802 79.8035 61.7786 79.6952 61.6939C79.5834 61.6092 79.458 61.5313 79.3158 61.4635C79.1735 61.3924 79.0278 61.3247 78.8788 61.2569C78.7094 61.1858 78.5434 61.1045 78.3842 61.0198C78.225 60.9351 78.0794 60.8369 77.9473 60.7217C77.8185 60.6099 77.7135 60.471 77.6356 60.305C77.5577 60.1391 77.5204 59.9494 77.5204 59.7292C77.5204 59.2888 77.7034 58.9467 78.0726 58.7062C78.4418 58.4657 78.8991 58.3438 79.4411 58.3438C79.8239 58.3438 80.227 58.3878 80.6504 58.4792L80.6775 58.5063L80.4607 59.6445L80.315 59.6716L80.0779 58.7638L80.0678 58.7672Z" fill="#17191B"/>
<path d="M82.615 62.4258C82.615 62.5714 82.615 62.7035 82.615 62.8187C82.615 62.9339 82.615 63.0389 82.6218 63.1337C82.6218 63.1913 82.6557 63.2286 82.7167 63.2455L83.2214 63.398L83.2281 63.5538C82.8759 63.547 82.5541 63.5436 82.2661 63.5436C81.9782 63.5436 81.6699 63.547 81.3617 63.5538L81.3481 63.398L81.7987 63.2625C81.863 63.2421 81.8935 63.2049 81.8969 63.1507C81.8969 63.0524 81.9003 62.944 81.9037 62.8255C81.9071 62.7069 81.9037 62.5714 81.9037 62.4258V59.4652C81.9037 59.3399 81.9037 59.2281 81.9037 59.1298C81.9037 59.0316 81.9037 58.9401 81.8969 58.8588C81.8969 58.7945 81.8664 58.7538 81.8088 58.7335L81.3549 58.5912L81.3481 58.4354C81.6632 58.4456 81.968 58.449 82.2661 58.449C82.466 58.449 82.6625 58.4456 82.8488 58.4354C83.0351 58.4253 83.2078 58.4219 83.3603 58.4219C83.9361 58.4219 84.3731 58.5337 84.6678 58.7606C84.9625 58.9876 85.1115 59.3195 85.1115 59.7667C85.1115 60.2883 84.9422 60.6948 84.6 60.9861C84.2579 61.2774 83.7803 61.4197 83.1604 61.4197C82.991 61.4197 82.8081 61.4096 82.615 61.3858V62.4258ZM82.615 61.0776C82.7844 61.1081 82.9538 61.1216 83.1198 61.1216C83.5093 61.1216 83.804 61.02 84.0072 60.8201C84.2105 60.6203 84.3121 60.312 84.3121 59.8988C84.3121 59.4855 84.2139 59.2078 84.0208 59.0113C83.8277 58.8182 83.5229 58.72 83.1062 58.72C82.9436 58.72 82.7776 58.7301 82.615 58.7505V61.0776Z" fill="#17191B"/>
<path d="M86.4494 58.4481H87.3368C87.8822 58.4481 88.4581 58.4447 89.061 58.4346L89.0847 58.4651L88.8747 59.5931L88.7291 59.6202L88.5021 58.7767H86.8152V60.782H87.1472C87.4012 60.782 87.6824 60.782 87.994 60.7753C88.0584 60.7753 88.099 60.7414 88.1193 60.6804L88.2481 60.1892L88.4445 60.1825C88.4378 60.5246 88.4344 60.7753 88.4344 60.9379C88.4344 61.1004 88.4378 61.3443 88.4445 61.6831L88.2481 61.6966L88.116 61.1953C88.0956 61.1309 88.0584 61.1004 88.0042 61.0971C87.6891 61.0937 87.4012 61.0903 87.1472 61.0903H86.8186V62.4181C86.8186 62.6891 86.8186 62.9534 86.8254 63.2176H88.5766L89.0204 62.2894L89.183 62.2589L89.1017 63.5292L89.0746 63.5563C88.4445 63.5495 87.8619 63.5461 87.3301 63.5461H86.4629C86.1682 63.5461 85.8667 63.5495 85.5585 63.5563L85.5449 63.4005L85.9954 63.265C86.0564 63.2481 86.0903 63.2108 86.0937 63.1532C86.0937 63.055 86.0971 62.9466 86.1005 62.828C86.1005 62.7061 86.1005 62.574 86.1005 62.4283V59.4677C86.1005 59.3424 86.1005 59.2306 86.1005 59.1324C86.1005 59.0341 86.1005 58.9427 86.0937 58.8614C86.0937 58.797 86.0632 58.7564 86.0056 58.736L85.5517 58.5938L85.5449 58.438C85.8599 58.4481 86.1614 58.4515 86.4494 58.4515V58.4481Z" fill="#17191B"/>
<path d="M93.6919 59.7084L93.5462 59.7287L93.2786 58.7701C92.9771 58.6956 92.7028 58.6583 92.4589 58.6583C91.8627 58.6583 91.3952 58.8649 91.0531 59.2816C90.7144 59.6982 90.5416 60.2368 90.5416 60.9008C90.5416 61.6121 90.7347 62.1778 91.1242 62.6012C91.5138 63.0247 92.0524 63.2347 92.74 63.2347C93.1262 63.2347 93.5327 63.1602 93.9629 63.0111L94.0035 63.1771C93.5225 63.5091 92.9805 63.6717 92.3776 63.6717C91.5917 63.6717 90.9549 63.4312 90.4705 62.9535C89.9861 62.4759 89.7422 61.8425 89.7422 61.06C89.7422 60.2267 90.0098 59.5661 90.545 59.0784C91.0802 58.5906 91.7746 58.3467 92.6316 58.3467C93.0415 58.3467 93.4649 58.3975 93.8951 58.4957L93.9222 58.5262L93.6953 59.705L93.6919 59.7084Z" fill="#17191B"/>
<path d="M95.8768 62.4254C95.8768 62.5711 95.8768 62.7032 95.8768 62.8218C95.8768 62.9403 95.8768 63.0487 95.8835 63.1469C95.8835 63.2079 95.9276 63.2486 96.0122 63.2723L96.4255 63.401L96.4323 63.5568C96.1173 63.55 95.8158 63.5467 95.5279 63.5467C95.2399 63.5467 94.9317 63.55 94.6234 63.5568L94.6099 63.401L95.0604 63.2655C95.1214 63.2486 95.1552 63.2113 95.1586 63.1537C95.1586 63.0555 95.162 62.9471 95.1654 62.8285C95.1654 62.7066 95.1654 62.5745 95.1654 62.4288V59.4682C95.1654 59.3429 95.1654 59.2311 95.1654 59.1329C95.1654 59.0347 95.1654 58.9432 95.1586 58.8619C95.1586 58.7975 95.1281 58.7569 95.0706 58.7366L94.6166 58.5943L94.6099 58.4385C94.9249 58.4486 95.2264 58.452 95.5143 58.452C95.8022 58.452 96.1071 58.4486 96.4187 58.4385L96.4323 58.5943L95.9784 58.7298C95.9208 58.7433 95.8869 58.784 95.8835 58.8416C95.8835 58.9263 95.8801 59.0211 95.8768 59.1193C95.8768 59.221 95.8768 59.3294 95.8768 59.4513V62.4254Z" fill="#17191B"/>
<path d="M99.5416 58.3604L101.161 62.8249C101.222 62.9943 101.276 63.1061 101.327 63.1671C101.378 63.228 101.449 63.2721 101.54 63.2992L101.882 63.4008L101.889 63.5566C101.571 63.5498 101.276 63.5465 101.002 63.5465C100.727 63.5465 100.399 63.5498 100.019 63.5566L100.006 63.4008L100.351 63.2992C100.399 63.2822 100.436 63.2619 100.456 63.2416C100.477 63.2213 100.487 63.1874 100.487 63.1433C100.487 63.0959 100.473 63.0316 100.449 62.9503C100.426 62.869 100.388 62.7673 100.341 62.6352L99.9989 61.6563H98.2408L97.8581 62.6319C97.8073 62.7673 97.7666 62.8757 97.7361 62.957C97.7056 63.0383 97.6921 63.0993 97.6921 63.1467C97.6921 63.1874 97.7023 63.2179 97.726 63.2382C97.7497 63.2585 97.7836 63.2755 97.831 63.2924L98.1697 63.3906L98.1765 63.5532C97.831 63.5464 97.5498 63.5431 97.3296 63.5431C97.1095 63.5431 96.8656 63.5464 96.5946 63.5532L96.5776 63.3974L96.9469 63.2856C97.0383 63.2551 97.1061 63.2111 97.1501 63.1501C97.1941 63.0891 97.2416 62.9943 97.2958 62.8656L99.1588 58.4146L99.5348 58.3604H99.5416ZM98.3764 61.3243H99.8803L99.169 59.3122L98.3764 61.3243Z" fill="#17191B"/>
<path d="M103.458 59.4518V62.4192C103.458 62.6902 103.458 62.9544 103.465 63.2186H105.243L105.71 62.2532L105.876 62.2261L105.795 63.5336L105.775 63.5607C105.145 63.554 104.562 63.5506 104.027 63.5506H103.112C102.818 63.5506 102.516 63.554 102.208 63.5607L102.194 63.4049L102.645 63.2694C102.706 63.2525 102.74 63.2152 102.743 63.1576C102.743 63.0594 102.746 62.951 102.75 62.8324C102.75 62.7105 102.75 62.5784 102.75 62.4327V59.4722C102.75 59.3468 102.75 59.235 102.75 59.1368C102.75 59.0386 102.75 58.9471 102.743 58.8658C102.743 58.8014 102.713 58.7608 102.655 58.7405L102.201 58.5982L102.194 58.4424C102.509 58.4525 102.811 58.4559 103.099 58.4559C103.387 58.4559 103.692 58.4525 104.003 58.4424L104.017 58.5982L103.563 58.7337C103.505 58.7472 103.471 58.7879 103.468 58.8455C103.468 58.9302 103.465 59.0555 103.461 59.2181C103.461 59.3807 103.461 59.4586 103.461 59.4552L103.458 59.4518Z" fill="#17191B"/>
<path d="M107.611 62.4254C107.611 62.5711 107.611 62.7032 107.611 62.8218C107.611 62.9403 107.611 63.0487 107.617 63.1469C107.617 63.2079 107.661 63.2486 107.746 63.2723L108.159 63.401L108.166 63.5568C107.851 63.55 107.55 63.5467 107.262 63.5467C106.974 63.5467 106.666 63.55 106.357 63.5568L106.344 63.401L106.794 63.2655C106.855 63.2486 106.889 63.2113 106.893 63.1537C106.893 63.0555 106.896 62.9471 106.899 62.8285C106.899 62.7066 106.899 62.5745 106.899 62.4288V59.4682C106.899 59.3429 106.899 59.2311 106.899 59.1329C106.899 59.0347 106.899 58.9432 106.893 58.8619C106.893 58.7975 106.862 58.7569 106.804 58.7366L106.351 58.5943L106.344 58.4385C106.659 58.4486 106.96 58.452 107.248 58.452C107.536 58.452 107.841 58.4486 108.153 58.4385L108.166 58.5943L107.712 58.7298C107.655 58.7433 107.621 58.784 107.617 58.8416C107.617 58.9263 107.614 59.0211 107.611 59.1193C107.611 59.221 107.611 59.3294 107.611 59.4513V62.4254Z" fill="#17191B"/>
<path d="M111.411 58.7672C111.157 58.6825 110.92 58.6385 110.707 58.6385C110.385 58.6385 110.131 58.7164 109.938 58.8722C109.748 59.028 109.65 59.2448 109.65 59.5226C109.65 59.6818 109.684 59.8206 109.752 59.9392C109.819 60.0578 109.907 60.1628 110.023 60.2542C110.138 60.3457 110.263 60.4236 110.409 60.4947C110.551 60.5659 110.7 60.6336 110.853 60.7014C111.022 60.7759 111.184 60.8504 111.34 60.9317C111.496 61.013 111.642 61.1079 111.77 61.2196C111.899 61.328 112.001 61.4601 112.075 61.6126C112.153 61.765 112.191 61.9445 112.191 62.1478C112.191 62.6322 112.001 63.0014 111.621 63.2589C111.242 63.5129 110.754 63.6416 110.151 63.6416C109.765 63.6416 109.335 63.5773 108.868 63.4452L108.847 63.4147L109.027 62.1749L109.193 62.1478L109.447 63.1843C109.704 63.286 109.968 63.3368 110.239 63.3368C110.602 63.3368 110.883 63.2555 111.086 63.0963C111.289 62.9371 111.391 62.7067 111.391 62.4086C111.391 62.2528 111.357 62.1173 111.293 61.9987C111.229 61.8802 111.14 61.7786 111.029 61.6939C110.917 61.6092 110.792 61.5313 110.649 61.4635C110.507 61.3924 110.361 61.3247 110.212 61.2569C110.043 61.1858 109.877 61.1045 109.714 61.0198C109.555 60.9351 109.409 60.8369 109.277 60.7217C109.145 60.6065 109.044 60.471 108.966 60.305C108.888 60.1391 108.851 59.9494 108.851 59.7292C108.851 59.2888 109.033 58.9467 109.403 58.7062C109.772 58.4657 110.229 58.3438 110.771 58.3438C111.154 58.3438 111.557 58.3878 111.981 58.4792L112.008 58.5063L111.791 59.6445L111.645 59.6716L111.408 58.7638L111.411 58.7672Z" fill="#17191B"/>
<path d="M114.558 63.5433C114.26 63.5433 113.928 63.5467 113.566 63.5534L113.552 63.3976L114.091 63.2384C114.152 63.2215 114.182 63.1842 114.185 63.1266C114.189 62.9437 114.192 62.7066 114.192 62.4187V58.7772H112.905L112.58 59.7494L112.434 59.7765L112.339 58.469L112.366 58.4385C112.966 58.4486 113.538 58.452 114.084 58.452H115.059C115.605 58.452 116.181 58.4486 116.787 58.4385L116.807 58.469L116.577 59.7494L116.431 59.7765L116.198 58.7806H114.91V62.422C114.91 62.71 114.91 62.9437 114.917 63.13C114.917 63.1876 114.951 63.2249 115.012 63.2418L115.551 63.401L115.557 63.5568C115.181 63.55 114.846 63.5467 114.558 63.5467V63.5433Z" fill="#17191B"/>
<path d="M119.192 58.3604L120.811 62.8249C120.872 62.9943 120.926 63.1061 120.977 63.1671C121.028 63.228 121.099 63.2721 121.191 63.2992L121.533 63.4008L121.539 63.5566C121.221 63.5498 120.926 63.5465 120.652 63.5465C120.378 63.5465 120.049 63.5498 119.67 63.5566L119.656 63.4008L120.002 63.2992C120.049 63.2822 120.086 63.2619 120.107 63.2416C120.127 63.2213 120.137 63.1874 120.137 63.1433C120.137 63.0959 120.124 63.0316 120.1 62.9503C120.076 62.869 120.039 62.7673 119.991 62.6352L119.649 61.6563H117.891L117.508 62.6319C117.458 62.7673 117.417 62.8757 117.387 62.957C117.356 63.0383 117.342 63.0993 117.342 63.1467C117.342 63.1874 117.353 63.2179 117.376 63.2382C117.4 63.2585 117.434 63.2755 117.481 63.2924L117.82 63.3906L117.827 63.5532C117.481 63.5464 117.2 63.5431 116.98 63.5431C116.76 63.5431 116.516 63.5464 116.245 63.5532L116.228 63.3974L116.597 63.2856C116.689 63.2551 116.756 63.2111 116.8 63.1501C116.845 63.0891 116.892 62.9943 116.946 62.8656L118.809 58.4146L119.185 58.3604H119.192ZM118.027 61.3243H119.531L118.819 59.3122L118.027 61.3243Z" fill="#17191B"/>
<path d="M124.371 58.7672C124.117 58.6825 123.88 58.6385 123.667 58.6385C123.345 58.6385 123.091 58.7164 122.898 58.8722C122.708 59.028 122.61 59.2448 122.61 59.5226C122.61 59.6818 122.644 59.8206 122.712 59.9392C122.779 60.0578 122.867 60.1628 122.983 60.2542C123.098 60.3457 123.223 60.4236 123.369 60.4947C123.511 60.5659 123.66 60.6336 123.812 60.7014C123.982 60.7759 124.144 60.8504 124.3 60.9317C124.456 61.013 124.602 61.1079 124.73 61.2196C124.859 61.328 124.961 61.4601 125.035 61.6126C125.113 61.765 125.15 61.9445 125.15 62.1478C125.15 62.6322 124.961 63.0014 124.581 63.2589C124.202 63.5129 123.714 63.6416 123.111 63.6416C122.725 63.6416 122.295 63.5773 121.827 63.4452L121.807 63.4147L121.987 62.1749L122.153 62.1478L122.407 63.1843C122.664 63.286 122.928 63.3368 123.199 63.3368C123.562 63.3368 123.843 63.2555 124.046 63.0963C124.249 62.9371 124.351 62.7067 124.351 62.4086C124.351 62.2528 124.317 62.1173 124.253 61.9987C124.188 61.8802 124.1 61.7786 123.989 61.6939C123.877 61.6092 123.751 61.5313 123.609 61.4635C123.467 61.3924 123.321 61.3247 123.172 61.2569C123.003 61.1858 122.837 61.1045 122.674 61.0198C122.515 60.9351 122.369 60.8369 122.237 60.7217C122.105 60.6065 122.004 60.471 121.926 60.305C121.848 60.1391 121.811 59.9494 121.811 59.7292C121.811 59.2888 121.993 58.9467 122.363 58.7062C122.732 58.4657 123.189 58.3438 123.731 58.3438C124.114 58.3438 124.517 58.3878 124.94 58.4792L124.968 58.5063L124.751 59.6445L124.605 59.6716L124.368 58.7638L124.371 58.7672Z" fill="#17191B"/>
<path d="M128.429 58.4481H129.317C129.862 58.4481 130.438 58.4447 131.041 58.4346L131.065 58.4651L130.855 59.5931L130.709 59.6202L130.482 58.7767H128.795V60.782H129.127C129.381 60.782 129.662 60.782 129.974 60.7753C130.038 60.7753 130.079 60.7414 130.099 60.6804L130.228 60.1892L130.425 60.1825C130.418 60.5246 130.414 60.7753 130.414 60.9379C130.414 61.1004 130.418 61.3443 130.425 61.6831L130.228 61.6966L130.096 61.1953C130.076 61.1309 130.038 61.1004 129.984 61.0971C129.669 61.0937 129.381 61.0903 129.127 61.0903H128.799V62.4181C128.799 62.6891 128.799 62.9534 128.805 63.2176H130.557L131 62.2894L131.163 62.2589L131.082 63.5292L131.055 63.5563C130.425 63.5495 129.842 63.5461 129.31 63.5461H128.443C128.148 63.5461 127.847 63.5495 127.538 63.5563L127.525 63.4005L127.975 63.265C128.036 63.2481 128.07 63.2108 128.074 63.1532C128.074 63.055 128.077 62.9466 128.08 62.828C128.08 62.7061 128.08 62.574 128.08 62.4283V59.4677C128.08 59.3424 128.08 59.2306 128.08 59.1324C128.08 59.0341 128.08 58.9427 128.074 58.8614C128.074 58.797 128.043 58.7564 127.986 58.736L127.532 58.5938L127.525 58.438C127.84 58.4481 128.141 58.4515 128.429 58.4515V58.4481Z" fill="#17191B"/>
<path d="M132.748 59.4759V62.423C132.748 62.7109 132.748 62.948 132.755 63.1377C132.755 63.2055 132.789 63.2461 132.847 63.263L133.28 63.3918L133.287 63.5543C132.982 63.5476 132.735 63.5442 132.538 63.5442C132.342 63.5442 132.098 63.5476 131.783 63.5543L131.77 63.3985L132.22 63.263C132.284 63.2427 132.315 63.2054 132.318 63.1512C132.322 62.9548 132.325 62.7109 132.325 62.4263V59.4658C132.325 59.2219 132.325 59.022 132.318 58.8594C132.318 58.7951 132.288 58.7544 132.23 58.7341L131.776 58.5918L131.77 58.436C132.085 58.4462 132.332 58.4496 132.515 58.4496C132.623 58.4496 132.735 58.4462 132.847 58.436L135.912 62.2638V59.4488C135.912 59.2117 135.912 59.0085 135.906 58.8391C135.906 58.7815 135.872 58.7443 135.811 58.7273L135.38 58.602L135.374 58.4326C135.685 58.4428 135.936 58.4462 136.129 58.4462C136.322 58.4462 136.573 58.4428 136.878 58.4326L136.891 58.5884L136.431 58.7307C136.373 58.751 136.346 58.7917 136.343 58.856C136.339 59.0152 136.336 59.2185 136.336 59.4624V63.5408L136.027 63.5713L132.748 59.4725V59.4759Z" fill="#17191B"/>
<path d="M140.604 62.4254C140.604 62.5711 140.604 62.7032 140.604 62.8218C140.604 62.9403 140.604 63.0487 140.611 63.1469C140.611 63.2079 140.655 63.2486 140.739 63.2723L141.153 63.401L141.159 63.5568C140.844 63.55 140.543 63.5467 140.255 63.5467C139.967 63.5467 139.659 63.55 139.35 63.5568L139.337 63.401L139.787 63.2655C139.848 63.2486 139.882 63.2113 139.886 63.1537C139.886 63.0555 139.889 62.9471 139.892 62.8285C139.892 62.7066 139.892 62.5745 139.892 62.4288V59.4682C139.892 59.3429 139.892 59.2311 139.892 59.1329C139.892 59.0347 139.892 58.9432 139.886 58.8619C139.886 58.7975 139.855 58.7569 139.798 58.7366L139.344 58.5943L139.337 58.4385C139.652 58.4486 139.953 58.452 140.241 58.452C140.529 58.452 140.834 58.4486 141.146 58.4385L141.159 58.5943L140.705 58.7298C140.648 58.7433 140.614 58.784 140.611 58.8416C140.611 58.9263 140.607 59.0211 140.604 59.1193C140.604 59.221 140.604 59.3294 140.604 59.4513V62.4254Z" fill="#17191B"/>
<path d="M142.762 59.4759V62.423C142.762 62.7109 142.762 62.948 142.768 63.1377C142.768 63.2055 142.802 63.2461 142.86 63.263L143.293 63.3918L143.3 63.5543C142.995 63.5476 142.748 63.5442 142.552 63.5442C142.355 63.5442 142.111 63.5476 141.796 63.5543L141.783 63.3985L142.233 63.263C142.298 63.2427 142.328 63.2054 142.331 63.1512C142.335 62.9548 142.338 62.7109 142.338 62.4263V59.4658C142.338 59.2219 142.338 59.022 142.331 58.8594C142.331 58.7951 142.301 58.7544 142.243 58.7341L141.789 58.5918L141.783 58.436C142.098 58.4462 142.345 58.4496 142.528 58.4496C142.636 58.4496 142.748 58.4462 142.86 58.436L145.925 62.2638V59.4488C145.925 59.2117 145.925 59.0085 145.919 58.8391C145.919 58.7815 145.885 58.7443 145.824 58.7273L145.394 58.602L145.387 58.4326C145.699 58.4428 145.949 58.4462 146.142 58.4462C146.335 58.4462 146.586 58.4428 146.891 58.4326L146.904 58.5884L146.444 58.7307C146.386 58.751 146.359 58.7917 146.356 58.856C146.352 59.0152 146.349 59.2185 146.349 59.4624V63.5408L146.041 63.5713L142.762 59.4725V59.4759Z" fill="#17191B"/>
<path d="M150.007 58.7672C149.753 58.6825 149.516 58.6385 149.303 58.6385C148.981 58.6385 148.727 58.7164 148.534 58.8722C148.344 59.028 148.246 59.2448 148.246 59.5226C148.246 59.6818 148.28 59.8206 148.347 59.9392C148.415 60.0578 148.503 60.1628 148.618 60.2542C148.733 60.3457 148.859 60.4236 149.004 60.4947C149.147 60.5659 149.296 60.6336 149.448 60.7014C149.618 60.7759 149.78 60.8504 149.936 60.9317C150.092 61.013 150.237 61.1079 150.366 61.2196C150.495 61.328 150.597 61.4601 150.671 61.6126C150.749 61.765 150.786 61.9445 150.786 62.1478C150.786 62.6322 150.597 63.0014 150.217 63.2589C149.838 63.5129 149.35 63.6416 148.747 63.6416C148.361 63.6416 147.931 63.5773 147.463 63.4452L147.443 63.4147L147.622 62.1749L147.788 62.1478L148.042 63.1843C148.3 63.286 148.564 63.3368 148.835 63.3368C149.198 63.3368 149.479 63.2555 149.682 63.0963C149.885 62.9371 149.987 62.7067 149.987 62.4086C149.987 62.2528 149.953 62.1173 149.889 61.9987C149.824 61.8802 149.736 61.7786 149.624 61.6939C149.513 61.6092 149.387 61.5313 149.245 61.4635C149.103 61.3924 148.957 61.3247 148.808 61.2569C148.639 61.1858 148.473 61.1045 148.31 61.0198C148.151 60.9351 148.005 60.8369 147.873 60.7217C147.741 60.6065 147.639 60.471 147.561 60.305C147.484 60.1391 147.446 59.9494 147.446 59.7292C147.446 59.2888 147.629 58.9467 147.998 58.7062C148.368 58.4657 148.825 58.3438 149.367 58.3438C149.75 58.3438 150.153 58.3878 150.576 58.4792L150.603 58.5063L150.387 59.6445L150.241 59.6716L150.004 58.7638L150.007 58.7672Z" fill="#17191B"/>
<path d="M151.155 58.436C151.47 58.4462 151.772 58.4496 152.06 58.4496C152.348 58.4496 152.652 58.4462 152.964 58.436L152.978 58.5918L152.524 58.7273C152.466 58.7409 152.432 58.7815 152.429 58.8391C152.429 58.9238 152.426 59.0186 152.422 59.1169C152.422 59.2185 152.422 59.3269 152.422 59.4488V61.444C152.422 62.1384 152.534 62.6228 152.754 62.8904C152.974 63.158 153.333 63.2935 153.825 63.2935C154.316 63.2935 154.685 63.1546 154.908 62.8769C155.132 62.5991 155.244 62.135 155.244 61.488V59.4488C155.244 59.3303 155.244 59.2185 155.244 59.1169C155.244 59.0152 155.24 58.9238 155.234 58.8391C155.234 58.7815 155.2 58.7443 155.139 58.7273L154.712 58.602L154.705 58.4326C155.013 58.4428 155.278 58.4462 155.501 58.4462C155.725 58.4462 155.972 58.4428 156.274 58.4326L156.287 58.5884L155.826 58.7307C155.769 58.751 155.742 58.7917 155.738 58.856C155.738 58.9373 155.735 59.0254 155.732 59.127C155.728 59.2287 155.732 59.337 155.732 59.4624V61.3356C155.732 62.135 155.569 62.7244 155.244 63.1038C154.919 63.4866 154.407 63.6763 153.709 63.6763C153.012 63.6763 152.52 63.5035 152.195 63.1614C151.87 62.8159 151.707 62.2841 151.707 61.5592V59.4658C151.707 59.3404 151.707 59.2287 151.707 59.1304C151.707 59.0322 151.707 58.9407 151.701 58.8594C151.701 58.7951 151.67 58.7544 151.613 58.7341L151.159 58.5918L151.152 58.436H151.155Z" fill="#17191B"/>
<path d="M161.534 58.4346C161.765 58.4447 161.971 58.4481 162.154 58.4481C162.337 58.4481 162.578 58.4447 162.879 58.4346L162.893 58.5904L162.432 58.7327C162.374 58.753 162.347 58.7936 162.344 58.858C162.341 59.0172 162.337 59.2204 162.337 59.4643V62.4249C162.337 62.7128 162.337 62.9533 162.344 63.1498C162.344 63.2074 162.381 63.2447 162.446 63.2616L162.883 63.3971L162.889 63.5529C162.568 63.5461 162.263 63.5428 161.968 63.5428C161.673 63.5428 161.396 63.5461 161.114 63.5529L161.101 63.3971L161.521 63.2684C161.578 63.2514 161.609 63.2074 161.612 63.1397C161.616 62.9466 161.619 62.7061 161.619 62.4215V59.2611L159.81 63.5428L159.543 63.5732L157.72 59.2645V62.4249C157.72 62.7128 157.72 62.9534 157.727 63.143C157.727 63.2108 157.761 63.2548 157.822 63.2718L158.232 63.4005L158.238 63.5563C157.951 63.5495 157.707 63.5461 157.514 63.5461C157.32 63.5461 157.073 63.5495 156.758 63.5563L156.745 63.4005L157.195 63.265C157.26 63.2447 157.29 63.2074 157.293 63.1532C157.297 62.9567 157.3 62.7128 157.3 62.4283V59.4677C157.3 59.2238 157.3 59.024 157.293 58.8614C157.293 58.797 157.263 58.7564 157.205 58.736L156.751 58.5938L156.745 58.438C157.06 58.4481 157.307 58.4515 157.49 58.4515C157.7 58.4515 157.917 58.4481 158.144 58.438L159.837 62.4419L161.528 58.438L161.534 58.4346Z" fill="#17191B"/>
<path d="M168.895 60.8812C168.895 61.7246 168.655 62.3987 168.177 62.9136C167.699 63.4285 167.032 63.6826 166.172 63.6826C165.311 63.6826 164.729 63.4454 164.282 62.9746C163.834 62.5004 163.611 61.8601 163.611 61.0539C163.611 60.2477 163.851 59.5465 164.332 59.0554C164.813 58.5642 165.477 58.3203 166.328 58.3203C167.178 58.3203 167.777 58.5507 168.221 59.008C168.668 59.4652 168.892 60.0919 168.892 60.8846L168.895 60.8812ZM164.414 60.9286C164.414 61.7213 164.573 62.331 164.895 62.751C165.216 63.1711 165.687 63.3845 166.307 63.3845C166.927 63.3845 167.367 63.1914 167.659 62.8086C167.95 62.4258 168.096 61.8229 168.096 61.0031C168.096 60.2342 167.94 59.6448 167.632 59.2281C167.323 58.8115 166.846 58.6082 166.202 58.6082C165.559 58.6082 165.122 58.8013 164.84 59.1841C164.559 59.5669 164.417 60.1495 164.417 60.9252L164.414 60.9286Z" fill="#17191B"/>
<path d="M172.15 58.7672C171.896 58.6825 171.659 58.6385 171.446 58.6385C171.124 58.6385 170.87 58.7164 170.677 58.8722C170.487 59.028 170.389 59.2448 170.389 59.5226C170.389 59.6818 170.423 59.8206 170.49 59.9392C170.558 60.0578 170.646 60.1628 170.761 60.2542C170.877 60.3457 171.002 60.4236 171.148 60.4947C171.29 60.5659 171.439 60.6336 171.591 60.7014C171.761 60.7759 171.923 60.8504 172.079 60.9317C172.235 61.013 172.381 61.1079 172.509 61.2196C172.638 61.328 172.74 61.4601 172.814 61.6126C172.892 61.765 172.929 61.9445 172.929 62.1478C172.929 62.6322 172.74 63.0014 172.36 63.2589C171.981 63.5129 171.493 63.6416 170.89 63.6416C170.504 63.6416 170.074 63.5773 169.606 63.4452L169.586 63.4147L169.765 62.1749L169.931 62.1478L170.186 63.1843C170.443 63.286 170.707 63.3368 170.978 63.3368C171.341 63.3368 171.622 63.2555 171.825 63.0963C172.028 62.9371 172.13 62.7067 172.13 62.4086C172.13 62.2528 172.096 62.1173 172.032 61.9987C171.967 61.8802 171.879 61.7786 171.767 61.6939C171.656 61.6092 171.53 61.5313 171.388 61.4635C171.246 61.3924 171.1 61.3247 170.951 61.2569C170.782 61.1858 170.616 61.1045 170.453 61.0198C170.294 60.9351 170.148 60.8369 170.016 60.7217C169.884 60.6065 169.782 60.471 169.704 60.305C169.627 60.1391 169.589 59.9494 169.589 59.7292C169.589 59.2888 169.772 58.9467 170.141 58.7062C170.511 58.4657 170.968 58.3438 171.51 58.3438C171.893 58.3438 172.296 58.3878 172.719 58.4792L172.746 58.5063L172.53 59.6445L172.384 59.6716L172.147 58.7638L172.15 58.7672Z" fill="#17191B"/>
<path d="M72.8562 69.8504C72.8562 70.643 72.6495 71.2833 72.2363 71.771C71.823 72.2588 71.281 72.54 70.6103 72.6145C70.8102 73.1802 71.3183 73.4613 72.1347 73.4613C72.4666 73.4613 72.7647 73.4105 73.0255 73.3089L73.0662 73.4715C72.5615 73.8746 72.1651 74.0745 71.8772 74.0745C70.9592 74.0745 70.3698 73.6002 70.1158 72.6484C69.313 72.6484 68.6897 72.4079 68.2459 71.9404C67.8022 71.4696 67.5786 70.8293 67.5786 70.0198C67.5786 69.2102 67.8191 68.5158 68.3001 68.0246C68.7811 67.5334 69.4451 67.2861 70.2953 67.2861C71.1455 67.2861 71.7451 67.5131 72.1889 67.9738C72.636 68.4311 72.8562 69.0577 72.8562 69.8538V69.8504ZM68.378 69.8978C68.378 70.6905 68.5372 71.3002 68.859 71.7202C69.1808 72.1403 69.6517 72.3537 70.2716 72.3537C70.8915 72.3537 71.3318 72.1606 71.6232 71.7778C71.9145 71.395 72.0601 70.7921 72.0601 69.9723C72.0601 69.2034 71.9043 68.614 71.5961 68.1973C71.2878 67.7841 70.8102 67.5774 70.1666 67.5774C69.523 67.5774 69.086 67.7705 68.8048 68.1533C68.5237 68.5361 68.3814 69.1187 68.3814 69.8944L68.378 69.8978Z" fill="#17191B"/>
<path d="M73.4521 67.4057C73.7672 67.4159 74.0687 67.4193 74.3566 67.4193C74.6445 67.4193 74.9494 67.4159 75.261 67.4057L75.2746 67.5616L74.824 67.6971C74.7665 67.7106 74.7326 67.7512 74.7292 67.8088C74.7292 67.8935 74.7258 67.9884 74.7224 68.0866C74.7224 68.1882 74.7224 68.2966 74.7224 68.4186V70.4137C74.7224 71.1081 74.8342 71.5925 75.0544 71.8602C75.2746 72.1278 75.6336 72.2633 76.1248 72.2633C76.616 72.2633 76.9852 72.1244 77.2088 71.8466C77.4323 71.5688 77.5441 71.1048 77.5441 70.4578V68.4186C77.5441 68.3 77.5441 68.1882 77.5441 68.0866C77.5441 67.985 77.5407 67.8935 77.534 67.8088C77.534 67.7512 77.5001 67.714 77.4391 67.6971L77.0123 67.5717L77.0055 67.4023C77.3138 67.4125 77.5814 67.4159 77.8016 67.4159C78.0217 67.4159 78.2724 67.4125 78.5739 67.4023L78.5874 67.5582L78.1267 67.7004C78.0692 67.7208 78.0421 67.7614 78.0387 67.8258C78.0387 67.9071 78.0353 67.9951 78.0319 68.0968C78.0319 68.195 78.0319 68.3068 78.0319 68.4321V70.3053C78.0319 71.1048 77.8693 71.6942 77.5441 72.0736C77.2189 72.4563 76.7074 72.646 76.0096 72.646C75.3118 72.646 74.8207 72.4733 74.4955 72.1311C74.1703 71.7856 74.0077 71.2538 74.0077 70.5289V68.4355C74.0077 68.3102 74.0077 68.1984 74.0077 68.1001C74.0077 68.0019 74.0077 67.9105 74.0009 67.8292C74.0009 67.7648 73.9704 67.7241 73.9128 67.7038L73.4589 67.5616L73.4521 67.4057Z" fill="#17191B"/>
<path d="M80.4065 71.3917C80.4065 71.5373 80.4065 71.6694 80.4065 71.788C80.4065 71.9066 80.4065 72.015 80.4133 72.1132C80.4133 72.1742 80.4573 72.2148 80.542 72.2385L80.9553 72.3673L80.9621 72.5231C80.647 72.5163 80.3456 72.5129 80.0576 72.5129C79.7697 72.5129 79.4614 72.5163 79.1532 72.5231L79.1396 72.3673L79.5902 72.2318C79.6511 72.2148 79.685 72.1776 79.6884 72.12C79.6884 72.0217 79.6918 71.9133 79.6952 71.7948C79.6952 71.6728 79.6952 71.5407 79.6952 71.3951V68.4345C79.6952 68.3092 79.6952 68.1974 79.6952 68.0991C79.6952 68.0009 79.6952 67.9094 79.6884 67.8282C79.6884 67.7638 79.6579 67.7231 79.6003 67.7028L79.1464 67.5605L79.1396 67.4047C79.4547 67.4149 79.7562 67.4183 80.0441 67.4183C80.332 67.4183 80.6369 67.4149 80.9485 67.4047L80.9621 67.5605L80.5082 67.696C80.4506 67.7096 80.4167 67.7502 80.4133 67.8078C80.4133 67.8925 80.4099 67.9874 80.4065 68.0856C80.4065 68.1872 80.4065 68.2956 80.4065 68.4176V71.3917ZM80.935 66.48L79.3429 67.0524L79.2447 66.8831L80.4336 65.9922L80.935 66.4224V66.4766V66.48Z" fill="#17191B"/>
<path d="M86.3713 67.4043C86.6016 67.4145 86.8083 67.4178 86.9912 67.4178C87.1741 67.4178 87.4146 67.4145 87.7161 67.4043L87.7296 67.5601L87.2689 67.7024C87.2114 67.7227 87.1843 67.7634 87.1809 67.8277C87.1741 67.9869 87.1741 68.1902 87.1741 68.4341V71.3946C87.1741 71.6826 87.1741 71.9231 87.1809 72.1195C87.1809 72.1771 87.2181 72.2144 87.2825 72.2313L87.7195 72.3668L87.7262 72.5226C87.4044 72.5159 87.0962 72.5125 86.8049 72.5125C86.5136 72.5125 86.2324 72.5159 85.9512 72.5226L85.9377 72.3668L86.3577 72.2381C86.4153 72.2212 86.4458 72.1771 86.4492 72.1094C86.456 71.9163 86.456 71.6758 86.456 71.3913V68.2308L84.6471 72.5125L84.3795 72.543L82.5571 68.2342V71.3946C82.5571 71.6826 82.5571 71.9231 82.5639 72.1128C82.5639 72.1805 82.5977 72.2246 82.6587 72.2415L83.0686 72.3702L83.0754 72.526C82.7874 72.5193 82.5435 72.5159 82.3504 72.5159C82.1574 72.5159 81.9101 72.5193 81.5951 72.526L81.5815 72.3702L82.0286 72.2347C82.093 72.2144 82.1235 72.1771 82.1269 72.1229C82.1303 71.9265 82.1337 71.6826 82.1337 71.398V68.4374C82.1337 68.1936 82.1337 67.9937 82.1269 67.8311C82.1269 67.7667 82.0964 67.7261 82.0388 67.7058L81.5849 67.5635L81.5781 67.4077C81.8932 67.4178 82.1404 67.4212 82.3233 67.4212C82.5334 67.4212 82.7502 67.4178 82.9771 67.4077L84.6708 71.4116L86.3611 67.4077L86.3713 67.4043Z" fill="#17191B"/>
<path d="M89.7151 71.3913C89.7151 71.5369 89.7151 71.669 89.7151 71.7876C89.7151 71.9061 89.7151 72.0145 89.7219 72.1128C89.7219 72.1737 89.7659 72.2144 89.8506 72.2381L90.2639 72.3668L90.2707 72.5226C89.9556 72.5159 89.6542 72.5125 89.3662 72.5125C89.0783 72.5125 88.77 72.5159 88.4618 72.5226L88.4482 72.3668L88.8988 72.2313C88.9597 72.2144 88.9936 72.1771 88.997 72.1195C88.997 72.0213 89.0004 71.9129 89.0038 71.7944C89.0038 71.6724 89.0038 71.5403 89.0038 71.3946V68.4341C89.0038 68.3087 89.0038 68.1969 89.0038 68.0987C89.0038 68.0005 89.0038 67.909 88.997 67.8277C88.997 67.7634 88.9665 67.7227 88.9089 67.7024L88.455 67.5601L88.4482 67.4043C88.7633 67.4145 89.0648 67.4178 89.3527 67.4178C89.6406 67.4178 89.9455 67.4145 90.2571 67.4043L90.2707 67.5601L89.8168 67.6956C89.7592 67.7092 89.7253 67.7498 89.7219 67.8074C89.7219 67.8921 89.7185 67.9869 89.7151 68.0852C89.7151 68.1868 89.7151 68.2952 89.7151 68.4171V71.3913Z" fill="#17191B"/>
<path d="M94.9351 68.6781L94.7894 68.6985L94.5218 67.7398C94.2203 67.6653 93.9459 67.628 93.702 67.628C93.1059 67.628 92.6384 67.8347 92.2963 68.2513C91.9575 68.668 91.7848 69.2066 91.7848 69.8705C91.7848 70.5819 91.9779 71.1475 92.3674 71.571C92.757 71.9944 93.2956 72.2044 93.9832 72.2044C94.3694 72.2044 94.7758 72.1299 95.206 71.9808L95.2467 72.1468C94.7657 72.4788 94.2237 72.6414 93.6207 72.6414C92.8349 72.6414 92.198 72.4009 91.7136 71.9233C91.2292 71.4456 90.9854 70.8122 90.9854 70.0297C90.9854 69.1964 91.253 68.5359 91.7882 68.0481C92.3234 67.5603 93.0178 67.3164 93.8748 67.3164C94.2847 67.3164 94.7081 67.3672 95.1383 67.4655L95.1654 67.4959L94.9384 68.6748L94.9351 68.6781Z" fill="#17191B"/>
<path d="M100.883 69.8509C100.883 70.6944 100.643 71.3685 100.165 71.8833C99.6877 72.3982 99.0204 72.6523 98.16 72.6523C97.2996 72.6523 96.717 72.4152 96.2698 71.9443C95.8227 71.4701 95.5991 70.8299 95.5991 70.0237C95.5991 69.2175 95.8396 68.5163 96.3206 68.0251C96.8016 67.5339 97.4656 67.29 98.3158 67.29C99.166 67.29 99.7656 67.5204 100.209 67.9777C100.656 68.435 100.88 69.0616 100.88 69.8543L100.883 69.8509ZM96.4019 69.8983C96.4019 70.691 96.5611 71.3007 96.8829 71.7207C97.2047 72.1408 97.6756 72.3542 98.2955 72.3542C98.9154 72.3542 99.3557 72.1611 99.6471 71.7783C99.9384 71.3956 100.084 70.7926 100.084 69.9729C100.084 69.2039 99.9282 68.6145 99.62 68.1979C99.3117 67.7812 98.8341 67.578 98.1905 67.578C97.5469 67.578 97.1099 67.771 96.8287 68.1538C96.5476 68.5366 96.4053 69.1192 96.4053 69.8949L96.4019 69.8983Z" fill="#17191B"/>
<path d="M104.138 67.7369C103.884 67.6522 103.647 67.6082 103.434 67.6082C103.112 67.6082 102.858 67.6861 102.665 67.8419C102.475 67.9977 102.377 68.2145 102.377 68.4923C102.377 68.6515 102.411 68.7904 102.479 68.9089C102.546 69.0275 102.634 69.1325 102.75 69.224C102.865 69.3154 102.99 69.3933 103.136 69.4645C103.278 69.5356 103.427 69.6033 103.58 69.6711C103.749 69.7456 103.912 69.8201 104.067 69.9014C104.223 69.9827 104.369 70.0776 104.498 70.1894C104.626 70.2978 104.728 70.4299 104.802 70.5823C104.88 70.7347 104.918 70.9143 104.918 71.1175C104.918 71.6019 104.728 71.9711 104.348 72.2286C103.969 72.4826 103.481 72.6114 102.878 72.6114C102.492 72.6114 102.062 72.547 101.595 72.4149L101.574 72.3844L101.754 71.1446L101.92 71.1175L102.174 72.1541C102.431 72.2557 102.695 72.3065 102.966 72.3065C103.329 72.3065 103.61 72.2252 103.813 72.066C104.017 71.9068 104.118 71.6764 104.118 71.3783C104.118 71.2225 104.084 71.087 104.02 70.9685C103.956 70.8499 103.867 70.7483 103.756 70.6636C103.644 70.5789 103.519 70.501 103.376 70.4333C103.234 70.3621 103.088 70.2944 102.939 70.2266C102.77 70.1555 102.604 70.0742 102.441 69.9895C102.282 69.9048 102.137 69.8066 102.004 69.6914C101.872 69.5763 101.771 69.4408 101.693 69.2748C101.615 69.1088 101.578 68.9191 101.578 68.6989C101.578 68.2586 101.761 67.9164 102.13 67.6759C102.499 67.4354 102.956 67.3135 103.498 67.3135C103.881 67.3135 104.284 67.3575 104.708 67.449L104.735 67.4761L104.518 68.6142L104.372 68.6413L104.135 67.7335L104.138 67.7369Z" fill="#17191B"/>
<path d="M108.562 71.3926C108.562 71.5382 108.562 71.6703 108.562 71.7855C108.562 71.9007 108.562 72.0057 108.569 72.1005C108.569 72.1581 108.603 72.1954 108.664 72.2123L109.169 72.3647L109.175 72.5206C108.823 72.5138 108.501 72.5104 108.213 72.5104C107.925 72.5104 107.617 72.5138 107.309 72.5206L107.295 72.3647L107.746 72.2292C107.81 72.2089 107.841 72.1717 107.844 72.1175C107.844 72.0192 107.848 71.9108 107.851 71.7923C107.851 71.6703 107.851 71.5382 107.851 71.3926V68.432C107.851 68.3067 107.851 68.1949 107.851 68.0966C107.851 67.9984 107.851 67.9069 107.844 67.8256C107.844 67.7613 107.814 67.7206 107.756 67.7003L107.302 67.558L107.295 67.4022C107.61 67.4124 107.915 67.4158 108.213 67.4158C108.413 67.4158 108.61 67.4124 108.796 67.4022C108.982 67.3921 109.155 67.3887 109.311 67.3887C109.887 67.3887 110.324 67.5005 110.618 67.7274C110.913 67.9544 111.062 68.2863 111.062 68.7335C111.062 69.2551 110.893 69.6616 110.551 69.9529C110.209 70.2409 109.731 70.3865 109.114 70.3865C108.945 70.3865 108.762 70.3763 108.569 70.3526V71.3926H108.562ZM108.562 70.0478C108.732 70.0783 108.901 70.0918 109.067 70.0918C109.457 70.0918 109.751 69.9902 109.955 69.7903C110.158 69.5905 110.259 69.2822 110.259 68.869C110.259 68.4557 110.161 68.1779 109.968 67.9815C109.775 67.7884 109.47 67.6901 109.053 67.6901C108.891 67.6901 108.725 67.7003 108.562 67.7206V70.0478Z" fill="#17191B"/>
<path d="M113.484 67.3281L115.104 71.7927C115.165 71.9621 115.219 72.0739 115.27 72.1348C115.32 72.1958 115.392 72.2398 115.483 72.2669L115.825 72.3686L115.832 72.5244C115.514 72.5176 115.219 72.5142 114.944 72.5142C114.67 72.5142 114.341 72.5176 113.962 72.5244L113.949 72.3686L114.294 72.2669C114.341 72.25 114.379 72.2297 114.399 72.2094C114.419 72.189 114.43 72.1552 114.43 72.1111C114.43 72.0637 114.416 71.9993 114.392 71.918C114.369 71.8367 114.331 71.7351 114.284 71.603L113.942 70.6241H112.184L111.801 71.5996C111.75 71.7351 111.709 71.8435 111.679 71.9248C111.649 72.0061 111.635 72.0671 111.635 72.1145C111.635 72.1552 111.645 72.1856 111.669 72.206C111.693 72.2263 111.726 72.2432 111.774 72.2602L112.113 72.3584L112.119 72.521C111.774 72.5142 111.493 72.5108 111.273 72.5108C111.052 72.5108 110.808 72.5142 110.537 72.521L110.521 72.3652L110.89 72.2534C110.981 72.2229 111.049 72.1789 111.093 72.1179C111.137 72.0569 111.184 71.9621 111.239 71.8334L113.102 67.3823L113.478 67.3281H113.484ZM112.319 70.2955H113.823L113.112 68.2834L112.319 70.2955Z" fill="#17191B"/>
<path d="M117.4 71.392C117.4 71.5377 117.4 71.6698 117.4 71.785C117.4 71.9002 117.4 72.0086 117.407 72.1034C117.407 72.1779 117.441 72.2253 117.502 72.2457L117.908 72.3676L117.918 72.5234C117.627 72.5167 117.339 72.5133 117.051 72.5133C116.763 72.5133 116.455 72.5167 116.147 72.5234L116.133 72.3676L116.584 72.2321C116.645 72.2152 116.679 72.1779 116.682 72.1203C116.682 72.0221 116.685 71.9137 116.689 71.7951C116.689 71.6732 116.689 71.5411 116.689 71.3954V68.4349C116.689 68.3095 116.689 68.1977 116.689 68.0995C116.689 68.0013 116.689 67.9098 116.682 67.8285C116.682 67.7642 116.652 67.7235 116.594 67.7032L116.14 67.5609L116.133 67.4051C116.448 67.4153 116.753 67.4186 117.055 67.4186C117.112 67.4186 117.187 67.4186 117.278 67.4119C117.37 67.4085 117.478 67.4051 117.61 67.3983C117.742 67.3949 117.854 67.3882 117.942 67.3882C118.03 67.3882 118.101 67.3848 118.152 67.3848C118.711 67.3848 119.135 67.4898 119.412 67.6998C119.693 67.9098 119.832 68.2147 119.832 68.6144C119.832 68.9768 119.737 69.2715 119.544 69.4951C119.351 69.7221 119.06 69.8948 118.664 70.0168C118.82 70.2505 118.962 70.4775 119.094 70.6942C119.226 70.911 119.348 71.1109 119.46 71.2938C119.572 71.4767 119.673 71.6359 119.768 71.7748C119.863 71.9137 119.948 72.0221 120.029 72.1034C120.069 72.1441 120.11 72.1813 120.154 72.2118C120.198 72.2423 120.239 72.266 120.283 72.2863C120.327 72.3066 120.374 72.3236 120.425 72.3371C120.476 72.3507 120.53 72.3676 120.591 72.3812L120.601 72.5404C120.425 72.5607 120.279 72.5742 120.161 72.5742C120.063 72.5742 119.975 72.5742 119.897 72.5675C119.822 72.5641 119.754 72.5539 119.693 72.537C119.632 72.5201 119.582 72.5031 119.534 72.4794C119.487 72.4557 119.439 72.4252 119.392 72.3913C119.29 72.3168 119.192 72.2084 119.094 72.0661C118.996 71.9239 118.894 71.7613 118.789 71.5817C118.684 71.4022 118.576 71.2091 118.46 71.0059C118.349 70.8026 118.227 70.6028 118.101 70.4097C118.064 70.3521 118.034 70.3047 118.007 70.2708C117.979 70.2369 117.952 70.2099 117.922 70.1895C117.891 70.1692 117.854 70.1557 117.813 70.1489C117.773 70.1421 117.719 70.1353 117.658 70.1353L117.404 70.1286V71.3954L117.4 71.392ZM117.4 69.8542C117.549 69.861 117.685 69.8643 117.813 69.8643C118.233 69.8643 118.542 69.7763 118.738 69.5967C118.935 69.4172 119.033 69.136 119.033 68.7567C119.033 68.3773 118.938 68.1164 118.752 67.9471C118.565 67.7777 118.271 67.693 117.871 67.693C117.803 67.693 117.729 67.693 117.651 67.6998C117.573 67.7032 117.488 67.7133 117.4 67.7235V69.8576V69.8542Z" fill="#17191B"/>
<path d="M123.243 67.3281L124.862 71.7927C124.923 71.9621 124.978 72.0739 125.028 72.1348C125.079 72.1958 125.15 72.2398 125.242 72.2669L125.584 72.3686L125.591 72.5244C125.272 72.5176 124.978 72.5142 124.703 72.5142C124.429 72.5142 124.1 72.5176 123.721 72.5244L123.707 72.3686L124.053 72.2669C124.1 72.25 124.138 72.2297 124.158 72.2094C124.178 72.189 124.188 72.1552 124.188 72.1111C124.188 72.0637 124.175 71.9993 124.151 71.918C124.127 71.8367 124.09 71.7351 124.043 71.603L123.701 70.6241H121.943L121.56 71.5996C121.509 71.7351 121.468 71.8435 121.438 71.9248C121.407 72.0061 121.394 72.0671 121.394 72.1145C121.394 72.1552 121.404 72.1856 121.428 72.206C121.451 72.2263 121.485 72.2432 121.533 72.2602L121.871 72.3584L121.878 72.521C121.533 72.5142 121.251 72.5108 121.031 72.5108C120.811 72.5108 120.567 72.5142 120.296 72.521L120.279 72.3652L120.649 72.2534C120.74 72.2229 120.808 72.1789 120.852 72.1179C120.896 72.0569 120.943 71.9621 120.997 71.8334L122.86 67.3823L123.236 67.3281H123.243ZM122.078 70.2955H123.582L122.871 68.2834L122.078 70.2955Z" fill="#17191B"/>
<path d="M128.924 68.4176V71.385C128.924 71.656 128.924 71.9202 128.931 72.1844H130.709L131.177 71.219L131.343 71.1919L131.261 72.4995L131.241 72.5265C130.611 72.5198 130.028 72.5164 129.493 72.5164H128.579C128.284 72.5164 127.982 72.5198 127.674 72.5265L127.661 72.3707L128.111 72.2352C128.172 72.2183 128.206 72.181 128.209 72.1234C128.209 72.0252 128.213 71.9168 128.216 71.7983C128.216 71.6763 128.216 71.5442 128.216 71.3985V68.438C128.216 68.3126 128.216 68.2009 128.216 68.1026C128.216 68.0044 128.216 67.9129 128.209 67.8316C128.209 67.7673 128.179 67.7266 128.121 67.7063L127.667 67.564L127.661 67.4082C127.976 67.4184 128.277 67.4218 128.565 67.4218C128.853 67.4218 129.158 67.4184 129.47 67.4082L129.483 67.564L129.029 67.6995C128.972 67.7131 128.938 67.7537 128.934 67.8113C128.934 67.896 128.931 68.0213 128.928 68.1839C128.928 68.3465 128.928 68.4244 128.928 68.421L128.924 68.4176Z" fill="#17191B"/>
<path d="M134.384 67.3281L136.004 71.7927C136.065 71.9621 136.119 72.0739 136.17 72.1348C136.22 72.1958 136.291 72.2398 136.383 72.2669L136.725 72.3686L136.732 72.5244C136.413 72.5176 136.119 72.5142 135.844 72.5142C135.57 72.5142 135.241 72.5176 134.862 72.5244L134.848 72.3686L135.194 72.2669C135.241 72.25 135.279 72.2297 135.299 72.2094C135.319 72.189 135.329 72.1552 135.329 72.1111C135.329 72.0637 135.316 71.9993 135.292 71.918C135.268 71.8367 135.231 71.7351 135.184 71.603L134.842 70.6241H133.084L132.701 71.5996C132.65 71.7351 132.609 71.8435 132.579 71.9248C132.548 72.0061 132.535 72.0671 132.535 72.1145C132.535 72.1552 132.545 72.1856 132.569 72.206C132.592 72.2263 132.626 72.2432 132.674 72.2602L133.012 72.3584L133.019 72.521C132.674 72.5142 132.393 72.5108 132.172 72.5108C131.952 72.5108 131.708 72.5142 131.437 72.521L131.42 72.3652L131.79 72.2534C131.881 72.2229 131.949 72.1789 131.993 72.1179C132.037 72.0569 132.084 71.9621 132.139 71.8334L134.002 67.3823L134.378 67.3281H134.384ZM133.219 70.2955H134.723L134.012 68.2834L133.219 70.2955Z" fill="#17191B"/>
<path d="M140.065 71.3913C140.065 71.5369 140.065 71.669 140.065 71.7876C140.065 71.9061 140.065 72.0145 140.072 72.1128C140.072 72.1737 140.116 72.2144 140.201 72.2381L140.614 72.3668L140.621 72.5226C140.306 72.5159 140.004 72.5125 139.716 72.5125C139.428 72.5125 139.12 72.5159 138.812 72.5226L138.798 72.3668L139.249 72.2313C139.31 72.2144 139.344 72.1771 139.347 72.1195C139.347 72.0213 139.35 71.9129 139.354 71.7944C139.354 71.6724 139.354 71.5403 139.354 71.3946V68.4341C139.354 68.3087 139.354 68.1969 139.354 68.0987C139.354 68.0005 139.354 67.909 139.347 67.8277C139.347 67.7634 139.317 67.7227 139.259 67.7024L138.805 67.5601L138.798 67.4043C139.113 67.4145 139.415 67.4178 139.703 67.4178C139.991 67.4178 140.296 67.4145 140.607 67.4043L140.621 67.5601L140.167 67.6956C140.109 67.7092 140.075 67.7498 140.072 67.8074C140.072 67.8921 140.069 67.9869 140.065 68.0852C140.065 68.1868 140.065 68.2952 140.065 68.4171V71.3913Z" fill="#17191B"/>
<path d="M142.223 68.4457V71.3927C142.223 71.6806 142.223 71.9177 142.229 72.1074C142.229 72.1752 142.263 72.2158 142.321 72.2328L142.754 72.3615L142.761 72.5241C142.456 72.5173 142.209 72.5139 142.013 72.5139C141.816 72.5139 141.572 72.5173 141.257 72.5241L141.244 72.3683L141.694 72.2328C141.759 72.2124 141.789 72.1752 141.792 72.121C141.796 71.9245 141.799 71.6806 141.799 71.3961V68.4355C141.799 68.1916 141.799 67.9918 141.792 67.8292C141.792 67.7648 141.762 67.7241 141.704 67.7038L141.25 67.5616L141.244 67.4057C141.559 67.4159 141.806 67.4193 141.989 67.4193C142.097 67.4193 142.209 67.4159 142.321 67.4057L145.386 71.2335V68.4186C145.386 68.1814 145.386 67.9782 145.38 67.8088C145.38 67.7512 145.346 67.714 145.285 67.6971L144.855 67.5717L144.848 67.4023C145.159 67.4125 145.41 67.4159 145.603 67.4159C145.796 67.4159 146.047 67.4125 146.352 67.4023L146.365 67.5582L145.905 67.7004C145.847 67.7208 145.82 67.7614 145.817 67.8258C145.813 67.985 145.81 68.1882 145.81 68.4321V72.5105L145.502 72.541L142.223 68.4423V68.4457Z" fill="#17191B"/>
<path d="M147.853 72.5133C147.558 72.5133 147.256 72.5167 146.948 72.5234L146.935 72.3676L147.385 72.2321C147.449 72.2118 147.48 72.1745 147.483 72.1203C147.483 72.0221 147.487 71.9137 147.49 71.7951C147.49 71.6732 147.49 71.5411 147.49 71.3954V68.4349C147.49 68.3095 147.49 68.1977 147.49 68.0995C147.49 68.0013 147.49 67.9098 147.483 67.8285C147.483 67.7642 147.453 67.7235 147.395 67.7032L146.941 67.5609L146.935 67.4051C147.25 67.4153 147.554 67.4186 147.849 67.4186C148.093 67.4186 148.327 67.4119 148.554 67.4017C148.781 67.3882 149.011 67.3848 149.252 67.3848C150.102 67.3848 150.742 67.5778 151.169 67.9674C151.596 68.3569 151.809 68.9328 151.809 69.695C151.809 70.596 151.572 71.2938 151.098 71.7918C150.623 72.2897 149.956 72.537 149.099 72.537C148.862 72.537 148.652 72.5336 148.469 72.5268C148.283 72.5201 148.08 72.5167 147.856 72.5167L147.853 72.5133ZM148.201 72.1881C148.344 72.2084 148.486 72.222 148.621 72.2253C148.76 72.2321 148.896 72.2355 149.035 72.2355C149.678 72.2355 150.166 72.0458 150.501 71.6664C150.837 71.287 151.006 70.7078 151.006 69.9287C151.006 69.1496 150.847 68.6076 150.529 68.2418C150.21 67.8759 149.705 67.693 149.014 67.693C148.906 67.693 148.784 67.693 148.652 67.6998C148.52 67.7032 148.371 67.7133 148.201 67.7269V72.1881Z" fill="#17191B"/>
<path d="M152.419 67.4057C152.734 67.4159 153.035 67.4193 153.323 67.4193C153.611 67.4193 153.916 67.4159 154.228 67.4057L154.241 67.5616L153.787 67.6971C153.73 67.7106 153.696 67.7512 153.693 67.8088C153.693 67.8935 153.689 67.9884 153.686 68.0866C153.686 68.1882 153.686 68.2966 153.686 68.4186V70.4137C153.686 71.1081 153.798 71.5925 154.018 71.8602C154.238 72.1278 154.597 72.2633 155.088 72.2633C155.579 72.2633 155.949 72.1244 156.172 71.8466C156.396 71.5688 156.507 71.1048 156.507 70.4578V68.4186C156.507 68.3 156.507 68.1882 156.507 68.0866C156.507 67.985 156.504 67.8935 156.497 67.8088C156.497 67.7512 156.463 67.714 156.402 67.6971L155.976 67.5717L155.969 67.4023C156.277 67.4125 156.541 67.4159 156.765 67.4159C156.989 67.4159 157.236 67.4125 157.537 67.4023L157.551 67.5582L157.09 67.7004C157.033 67.7208 157.005 67.7614 157.002 67.8258C157.002 67.9071 156.999 67.9951 156.995 68.0968C156.992 68.1984 156.995 68.3068 156.995 68.4321V70.3053C156.995 71.1048 156.833 71.6942 156.507 72.0736C156.182 72.4563 155.671 72.646 154.973 72.646C154.275 72.646 153.784 72.4733 153.459 72.1311C153.134 71.7856 152.971 71.2538 152.971 70.5289V68.4355C152.971 68.3102 152.971 68.1984 152.971 68.1001C152.971 68.0019 152.971 67.9105 152.964 67.8292C152.964 67.7648 152.934 67.7241 152.876 67.7038L152.422 67.5616L152.416 67.4057H152.419Z" fill="#17191B"/>
<path d="M160.637 67.7369C160.382 67.6522 160.145 67.6082 159.932 67.6082C159.61 67.6082 159.356 67.6861 159.163 67.8419C158.973 67.9977 158.875 68.2145 158.875 68.4923C158.875 68.6515 158.909 68.7904 158.977 68.9089C159.044 69.0275 159.133 69.1325 159.248 69.224C159.363 69.3154 159.488 69.3933 159.634 69.4645C159.776 69.5356 159.925 69.6033 160.078 69.6711C160.247 69.7456 160.41 69.8201 160.565 69.9014C160.721 69.9827 160.867 70.0776 160.996 70.1894C161.124 70.2978 161.226 70.4299 161.3 70.5823C161.378 70.7347 161.416 70.9143 161.416 71.1175C161.416 71.6019 161.226 71.9711 160.847 72.2286C160.467 72.4826 159.979 72.6114 159.376 72.6114C158.99 72.6114 158.56 72.547 158.093 72.4149L158.072 72.3844L158.252 71.1446L158.418 71.1175L158.672 72.1541C158.929 72.2557 159.193 72.3065 159.464 72.3065C159.827 72.3065 160.108 72.2252 160.311 72.066C160.515 71.9068 160.616 71.6764 160.616 71.3783C160.616 71.2225 160.582 71.087 160.518 70.9685C160.454 70.8499 160.366 70.7483 160.254 70.6636C160.142 70.5789 160.017 70.501 159.874 70.4333C159.732 70.3621 159.586 70.2944 159.437 70.2266C159.268 70.1555 159.102 70.0742 158.939 69.9895C158.78 69.9048 158.635 69.8066 158.502 69.6914C158.37 69.5763 158.269 69.4408 158.191 69.2748C158.113 69.1088 158.076 68.9191 158.076 68.6989C158.076 68.2586 158.259 67.9164 158.628 67.6759C158.997 67.4354 159.454 67.3135 159.996 67.3135C160.379 67.3135 160.782 67.3575 161.206 67.449L161.233 67.4761L161.016 68.6142L160.87 68.6413L160.633 67.7335L160.637 67.7369Z" fill="#17191B"/>
<path d="M163.78 72.513C163.482 72.513 163.15 72.5164 162.788 72.5232L162.774 72.3673L163.313 72.2081C163.374 72.1912 163.404 72.1539 163.408 72.0963C163.411 71.9134 163.414 71.6763 163.414 71.3884V67.7469H162.127L161.802 68.7191L161.656 68.7462L161.562 67.4387L161.589 67.4082C162.188 67.4184 162.761 67.4218 163.306 67.4218H164.282C164.827 67.4218 165.403 67.4184 166.009 67.4082L166.029 67.4387L165.799 68.7191L165.653 68.7462L165.42 67.7503H164.133V71.3918C164.133 71.6797 164.133 71.9134 164.139 72.0997C164.139 72.1573 164.173 72.1946 164.234 72.2115L164.773 72.3707L164.78 72.5265C164.404 72.5198 164.068 72.5164 163.78 72.5164V72.513Z" fill="#17191B"/>
<path d="M167.693 71.392C167.693 71.5377 167.693 71.6698 167.693 71.785C167.693 71.9002 167.693 72.0086 167.699 72.1034C167.699 72.1779 167.733 72.2253 167.794 72.2457L168.201 72.3676L168.211 72.5234C167.92 72.5167 167.632 72.5133 167.344 72.5133C167.056 72.5133 166.748 72.5167 166.439 72.5234L166.426 72.3676L166.876 72.2321C166.937 72.2152 166.971 72.1779 166.975 72.1203C166.975 72.0221 166.978 71.9137 166.981 71.7951C166.981 71.6732 166.981 71.5411 166.981 71.3954V68.4349C166.981 68.3095 166.981 68.1977 166.981 68.0995C166.981 68.0013 166.981 67.9098 166.975 67.8285C166.975 67.7642 166.944 67.7235 166.886 67.7032L166.433 67.5609L166.426 67.4051C166.741 67.4153 167.046 67.4186 167.347 67.4186C167.405 67.4186 167.479 67.4186 167.571 67.4119C167.662 67.4085 167.771 67.4051 167.903 67.3983C168.035 67.3949 168.147 67.3882 168.235 67.3882C168.323 67.3882 168.394 67.3848 168.445 67.3848C169.004 67.3848 169.427 67.4898 169.705 67.6998C169.986 67.9098 170.125 68.2147 170.125 68.6144C170.125 68.9768 170.03 69.2715 169.837 69.4951C169.644 69.7221 169.352 69.8948 168.956 70.0168C169.112 70.2505 169.254 70.4775 169.386 70.6942C169.518 70.911 169.64 71.1109 169.752 71.2938C169.864 71.4767 169.966 71.6359 170.06 71.7748C170.155 71.9137 170.24 72.0221 170.321 72.1034C170.362 72.1441 170.403 72.1813 170.447 72.2118C170.491 72.2423 170.531 72.266 170.575 72.2863C170.619 72.3066 170.667 72.3236 170.718 72.3371C170.768 72.3507 170.823 72.3676 170.884 72.3812L170.894 72.5404C170.718 72.5607 170.572 72.5742 170.453 72.5742C170.355 72.5742 170.267 72.5742 170.189 72.5675C170.115 72.5641 170.047 72.5539 169.986 72.537C169.925 72.5201 169.874 72.5031 169.827 72.4794C169.779 72.4557 169.732 72.4252 169.684 72.3913C169.583 72.3168 169.485 72.2084 169.386 72.0661C169.288 71.9239 169.187 71.7613 169.081 71.5817C168.976 71.4022 168.868 71.2091 168.753 71.0059C168.641 70.8026 168.519 70.6028 168.394 70.4097C168.357 70.3521 168.326 70.3047 168.299 70.2708C168.272 70.2369 168.245 70.2099 168.214 70.1895C168.184 70.1692 168.147 70.1557 168.106 70.1489C168.065 70.1421 168.011 70.1353 167.95 70.1353L167.696 70.1286V71.3954L167.693 71.392ZM167.693 69.8542C167.842 69.861 167.977 69.8643 168.106 69.8643C168.526 69.8643 168.834 69.7763 169.031 69.5967C169.227 69.4172 169.325 69.136 169.325 68.7567C169.325 68.3773 169.231 68.1164 169.044 67.9471C168.858 67.7777 168.563 67.693 168.164 67.693C168.096 67.693 168.021 67.693 167.943 67.6998C167.865 67.7032 167.781 67.7133 167.693 67.7235V69.8576V69.8542Z" fill="#17191B"/>
<path d="M172.411 71.3913C172.411 71.5369 172.411 71.669 172.411 71.7876C172.411 71.9061 172.411 72.0145 172.418 72.1128C172.418 72.1737 172.462 72.2144 172.547 72.2381L172.96 72.3668L172.967 72.5226C172.652 72.5159 172.35 72.5125 172.063 72.5125C171.775 72.5125 171.466 72.5159 171.158 72.5226L171.145 72.3668L171.595 72.2313C171.656 72.2144 171.69 72.1771 171.693 72.1195C171.693 72.0213 171.697 71.9129 171.7 71.7944C171.7 71.6724 171.7 71.5403 171.7 71.3946V68.4341C171.7 68.3087 171.7 68.1969 171.7 68.0987C171.7 68.0005 171.7 67.909 171.693 67.8277C171.693 67.7634 171.663 67.7227 171.605 67.7024L171.151 67.5601L171.145 67.4043C171.46 67.4145 171.761 67.4178 172.049 67.4178C172.337 67.4178 172.642 67.4145 172.953 67.4043L172.967 67.5601L172.513 67.6956C172.455 67.7092 172.422 67.7498 172.418 67.8074C172.418 67.8921 172.415 67.9869 172.411 68.0852C172.411 68.1868 172.411 68.2952 172.411 68.4171V71.3913Z" fill="#17191B"/>
<path d="M176.076 67.3281L177.695 71.7927C177.756 71.9621 177.811 72.0739 177.861 72.1348C177.912 72.1958 177.983 72.2398 178.075 72.2669L178.417 72.3686L178.424 72.5244C178.105 72.5176 177.811 72.5142 177.536 72.5142C177.262 72.5142 176.933 72.5176 176.554 72.5244L176.54 72.3686L176.886 72.2669C176.933 72.25 176.971 72.2297 176.991 72.2094C177.011 72.189 177.021 72.1552 177.021 72.1111C177.021 72.0637 177.008 71.9993 176.984 71.918C176.96 71.8367 176.923 71.7351 176.876 71.603L176.534 70.6241H174.776L174.393 71.5996C174.342 71.7351 174.301 71.8435 174.271 71.9248C174.24 72.0061 174.227 72.0671 174.227 72.1145C174.227 72.1552 174.237 72.1856 174.261 72.206C174.284 72.2263 174.318 72.2432 174.366 72.2602L174.704 72.3584L174.711 72.521C174.366 72.5142 174.084 72.5108 173.864 72.5108C173.644 72.5108 173.4 72.5142 173.129 72.521L173.112 72.3652L173.482 72.2534C173.573 72.2229 173.641 72.1789 173.685 72.1179C173.729 72.0569 173.776 71.9621 173.83 71.8334L175.693 67.3823L176.07 67.3281H176.076ZM174.911 70.2955H176.415L175.704 68.2834L174.911 70.2955Z" fill="#17191B"/>
<path d="M67.2124 43.4903V22.3496H71.5686V43.8053C71.5686 45.7836 72.3985 46.4983 73.7873 46.4983C75.1762 46.4983 76.0027 45.7836 76.0027 43.8053V22.3496H80.1997V43.4903C80.1997 47.9244 77.9809 50.4582 73.706 50.4582C69.4311 50.4582 67.2124 47.9244 67.2124 43.4903Z" fill="#00A56B"/>
<path d="M83.2891 22.3496H87.6452V50.0618H83.2891V22.3496Z" fill="#00A56B"/>
<path d="M90.8906 22.3496H97.1065L99.8774 42.1828H99.9553L102.726 22.3496H108.942V50.0618H104.826V29.0804H104.748L101.581 50.0618H97.9398L94.7726 29.0804H94.6947V50.0618H90.894V22.3496H90.8906Z" fill="#00A56B"/>
<path d="M112.19 22.3496H123.711V26.3095H116.547V34.0293H122.166V37.9892H116.547V50.0618H112.19V22.3496Z" fill="#17191B"/>
<path d="M125.811 22.3496H130.167V46.102H137.332V50.0618H125.811V22.3496Z" fill="#17191B"/>
<path d="M139.272 43.4903V22.3496H143.629V43.8053C143.629 45.7836 144.459 46.4983 145.847 46.4983C147.236 46.4983 148.063 45.7836 148.063 43.8053V22.3496H152.26V43.4903C152.26 47.9244 150.041 50.4582 145.766 50.4582C141.491 50.4582 139.272 47.9244 139.272 43.4903Z" fill="#17191B"/>
<path d="M159.149 35.8929L154.36 22.3535H158.953L161.883 31.303H161.961L164.969 22.3535H169.085L164.295 35.8929L169.322 50.0658H164.728L161.561 40.4083H161.483L158.235 50.0658H154.119L159.146 35.8929H159.149Z" fill="#17191B"/>
<path d="M9.82712 17.4727C9.82712 17.4727 -4.23733 37.2482 16.8187 53.799C16.8187 53.799 25.1618 59.9031 36.4317 57.8266C36.4317 57.8266 26.7776 52.312 29.911 46.2722C33.0443 40.2325 36.0421 31.9842 21.141 34.1318C6.23987 36.2794 9.82712 17.4727 9.82712 17.4727Z" fill="#17191B"/>
<path d="M21.9705 52.7292C23.1155 52.7292 24.0436 51.801 24.0436 50.6561C24.0436 49.5112 23.1155 48.583 21.9705 48.583C20.8256 48.583 19.8975 49.5112 19.8975 50.6561C19.8975 51.801 20.8256 52.7292 21.9705 52.7292Z" fill="white"/>
<path d="M47.8098 50.2593C47.6065 50.2593 47.3965 50.2322 47.1899 50.1746C45.9399 49.8324 45.2015 48.5385 45.5436 47.2885C45.8857 46.0386 47.1797 45.3001 48.4297 45.6422C49.036 45.8082 49.5407 46.1978 49.8524 46.7431C50.164 47.2885 50.2453 47.922 50.0793 48.5283C49.7948 49.5716 48.8463 50.2593 47.8132 50.2593H47.8098ZM47.8098 45.9539C47.4744 45.9539 47.1425 46.042 46.8444 46.2113C46.3905 46.4688 46.0653 46.8922 45.9264 47.3935C45.6419 48.4335 46.2584 49.5106 47.2983 49.7952C48.3382 50.0797 49.4154 49.4632 49.6999 48.4233C49.8388 47.9186 49.7711 47.3901 49.5103 46.9362C49.2528 46.4823 48.8294 46.1571 48.328 46.0182C48.1553 45.9708 47.9825 45.9471 47.8098 45.9471V45.9539Z" fill="#00A56B"/>
<path d="M37.4442 41.0393C37.3358 41.0393 37.2308 41.0258 37.1224 40.9953C36.4788 40.8192 36.0994 40.1552 36.2755 39.5116C36.4517 38.8714 37.1156 38.492 37.7592 38.6648C38.4028 38.8409 38.7822 39.5048 38.6061 40.1485C38.5214 40.4601 38.3215 40.7175 38.0404 40.8801C37.8575 40.9851 37.6508 41.0393 37.4442 41.0393ZM37.4442 39.0171C37.0851 39.0171 36.7566 39.2542 36.6583 39.6166C36.5398 40.0502 36.7972 40.4974 37.2274 40.6159C37.4374 40.6735 37.6576 40.6464 37.8439 40.538C38.0302 40.4296 38.1691 40.2569 38.2267 40.0468C38.3452 39.6132 38.0878 39.1661 37.6576 39.0476C37.5865 39.0272 37.5153 39.0171 37.4442 39.0171Z" fill="#00A56B"/>
<path d="M46.282 80.0007L37.8813 63.1112C30.3952 64.5644 22.6584 63.2806 16.0021 59.4664C9.07831 55.4963 3.92948 49.1213 1.5075 41.5132C-3.82425 24.7795 5.45381 6.8331 22.1841 1.50474C38.9144 -3.82363 56.8608 5.45105 62.1892 22.1848C66.0034 34.1592 62.4534 47.16 53.1483 55.5302L61.5456 72.4096L46.282 80.0007ZM38.9619 60.8721L47.1661 77.3653L58.9068 71.5255L50.706 55.0424L51.2886 54.5445C60.421 46.7128 63.9642 34.2439 60.3126 22.7809C55.3162 7.08377 38.4775 -1.61844 22.7803 3.37796C15.1756 5.79995 8.96992 11.0369 5.30476 18.1267C1.63961 25.2165 0.955353 33.3089 3.37734 40.9136C8.0892 55.7064 23.0649 64.3544 38.2099 61.0347L38.9585 60.8687L38.9619 60.8721Z" fill="#00A56B"/>
<path d="M58.003 67.4907L48.7705 72.0898L48.9457 72.4416L58.1782 67.8424L58.003 67.4907Z" fill="#00A56B"/>
<path d="M10.8129 39.8495C11.5332 39.8495 12.1171 39.2656 12.1171 38.5454C12.1171 37.8251 11.5332 37.2412 10.8129 37.2412C10.0927 37.2412 9.50879 37.8251 9.50879 38.5454C9.50879 39.2656 10.0927 39.8495 10.8129 39.8495Z" fill="white"/>
</g>
<defs>
<clipPath id="clip0_1589_311">
<rect width="178.427" height="80" fill="white"/>
</clipPath>
</defs>
</svg>
