<svg width="97" height="29" viewBox="0 0 97 29" fill="none" xmlns="http://www.w3.org/2000/svg">
<path d="M80.414 7.98828H78.3965C75.3452 7.99692 73.123 9.03679 71.0277 12.1348H70.9616L71.8313 7.98828H65.3887L61.3984 26.9943H67.8442L70.1879 15.8321C70.6654 13.5861 71.4839 12.8259 73.5643 12.8259H79.3994L80.414 7.98828Z" fill="black"/>
<path d="M35.6125 7.29791C33.5353 7.29791 31.5657 8.31835 29.9191 11.2717H29.8243C30.0811 10.3301 30.2399 9.69944 30.3603 9.17141L32.283 0.00585938H25.8372L20.1758 26.9939H26.6216L29.1763 14.8178C29.6441 12.8406 30.7152 11.9628 32.2041 11.9628C33.773 11.9628 34.6597 12.9648 34.114 15.6255L31.7267 26.9939H38.1725L40.8327 14.3816C41.8217 9.68216 39.3661 7.29791 35.6146 7.29791H35.6125Z" fill="black"/>
<path d="M92.1138 4.80892H95.131L96.1382 0.00585938H90.124C85.895 0.00585938 83.8146 2.07912 82.9961 5.91466L78.5742 26.9939H85.02L87.9925 12.8255H93.0197L94.0344 7.98792H89.0071L89.1158 7.4696C89.5251 5.53456 90.5109 4.80892 92.1138 4.80892Z" fill="black"/>
<path d="M13.4206 15.073H11.2272C10.2456 15.073 9.77028 14.7188 9.77028 14.0774C9.77028 13.2114 10.625 12.8259 11.7025 12.8259H20.5719L21.5865 7.98828H12.8749C6.29266 7.98828 3.32554 10.6144 3.32554 14.3808C3.32554 17.5598 5.47414 19.3567 8.81641 19.3567H10.0154C11.7548 19.3567 12.3004 19.875 12.3004 20.6697C12.3004 21.6718 11.4478 22.3283 9.60615 22.3283H1.94323L0.964844 26.9932H9.46974C15.8473 26.9932 19.2919 24.4707 19.2919 20.2205C19.2919 17.1268 17.4353 15.0946 13.4216 15.073H13.4206Z" fill="black"/>
<path d="M61.2975 12.8216C61.29 12.7514 61.2804 12.6823 61.2687 12.6153C60.7785 9.54215 58.3943 7.98828 55.1863 7.98828H44.3037L43.2891 12.8259H51.5115C47.6119 15.0471 43.7772 18.5824 41.8705 21.9612C39.2636 26.5796 41.2471 29.1517 46.301 27.7059C48.4272 27.0979 50.757 25.8745 52.9386 24.3174L52.3769 26.9932H58.8238L61.1131 16.0837C61.371 14.857 61.4222 13.7707 61.2996 12.8205L61.2975 12.8216ZM53.0217 23.9178C51.4955 24.7169 50.0695 25.0452 49.2233 24.6899C47.7717 24.0787 48.5753 21.6858 51.0191 19.3448C52.1094 18.3006 53.3415 17.4443 54.5 16.8688L53.0207 23.9178H53.0217Z" fill="black"/>
</svg>
